<?xml version="1.0" standalone="no"?>
<!DOCTYPE svg PUBLIC "-//W3C//DTD SVG 20010904//EN"
 "http://www.w3.org/TR/2001/REC-SVG-20010904/DTD/svg10.dtd">
<svg version="1.0" xmlns="http://www.w3.org/2000/svg"
 width="1024.000000pt" height="1024.000000pt" viewBox="0 0 1024.000000 1024.000000"
 preserveAspectRatio="xMidYMid meet">

<g transform="translate(0.000000,1024.000000) scale(0.100000,-0.100000)"
fill="#000000" stroke="none">
<path d="M4840 8889 c-224 -32 -380 -63 -477 -95 -204 -69 -441 -187 -533
-265 -34 -28 -34 -29 -7 -19 16 5 34 10 40 9 7 0 -10 -9 -38 -19 -57 -20 -61
-17 80 -44 44 -9 92 -25 107 -36 22 -16 32 -18 47 -10 45 23 361 -114 556
-241 571 -374 970 -970 1204 -1800 75 -267 131 -554 131 -674 0 -53 -1 -55
-27 -55 -44 0 -103 -20 -145 -48 -46 -30 -80 -84 -106 -167 -49 -159 -175
-272 -459 -411 -168 -82 -317 -132 -418 -141 -57 -4 -78 -10 -82 -22 -3 -9
-23 -56 -44 -105 -29 -68 -36 -92 -26 -98 20 -13 222 -9 294 6 105 22 234 71
389 147 329 162 499 319 574 532 16 44 23 52 44 53 14 1 26 -2 26 -6 0 -18 64
-32 124 -28 87 5 186 55 306 156 88 74 233 217 290 287 36 44 41 46 100 30 64
-17 60 -20 145 90 200 257 325 492 423 796 146 451 163 926 46 1286 -29 88
-102 248 -135 294 -12 18 -46 81 -76 141 -74 151 -155 235 -306 318 l-57 31
46 -71 c54 -84 98 -178 129 -274 15 -45 30 -73 41 -77 11 -4 51 -8 89 -8 39
-1 76 -5 83 -10 16 -9 35 -91 54 -221 18 -128 18 -725 0 -870 -57 -457 -166
-807 -354 -1136 l-40 -72 -52 15 c-28 7 -77 14 -108 14 -87 1 -134 -27 -222
-129 -186 -218 -386 -375 -443 -349 -17 8 -21 15 -16 37 16 82 -38 546 -93
794 -167 753 -568 1393 -1146 1829 -165 124 -245 153 -618 218 -129 23 -251
45 -270 48 -31 6 -26 9 55 24 93 18 272 22 355 8 35 -5 59 -2 106 15 46 17
284 74 309 74 2 0 29 38 59 85 31 47 74 105 97 130 23 25 35 44 28 44 -8 -1
-43 -6 -79 -10z m1157 -3411 c-3 -8 -6 -5 -6 6 -1 11 2 17 5 13 3 -3 4 -12 1
-19z m-13 -52 c-3 -15 -8 -25 -11 -23 -2 3 -1 17 3 31 3 15 8 25 11 23 2 -3 1
-17 -3 -31z"/>
<path d="M7335 8543 c10 -14 27 -41 37 -60 l20 -33 44 40 c24 22 45 44 46 48
2 7 -107 31 -146 32 -18 0 -18 -1 -1 -27z"/>
<path d="M1525 7514 c-242 -220 -433 -465 -580 -746 -52 -99 -135 -292 -135
-312 0 -2 33 15 73 37 41 23 111 60 156 82 l81 39 46 86 c26 47 79 135 119
195 63 95 108 152 267 339 22 26 28 48 38 128 6 53 19 131 29 172 10 42 17 76
16 76 -2 0 -51 -43 -110 -96z"/>
<path d="M9118 7220 c-15 -30 -48 -86 -73 -124 l-47 -69 29 -23 c15 -13 45
-29 66 -35 20 -7 37 -17 37 -23 0 -23 -82 -156 -182 -298 -314 -445 -533 -666
-792 -799 l-83 -43 -93 69 c-115 86 -158 99 -273 83 -103 -13 -370 -5 -494 16
l-92 16 -93 -73 c-51 -39 -106 -81 -122 -93 l-28 -20 98 -22 c250 -54 467 -78
639 -68 66 4 131 9 145 12 19 4 42 -7 100 -51 242 -182 599 -349 912 -425 205
-50 315 -63 488 -57 172 6 246 22 360 79 68 35 172 129 203 186 l19 33 -54
-41 c-77 -59 -205 -118 -316 -146 -118 -31 -295 -35 -409 -10 -148 32 -308
111 -414 204 -19 17 -66 42 -105 57 -119 45 -299 138 -283 147 101 59 221 138
307 202 136 102 368 334 450 451 163 231 251 503 237 730 -2 39 -2 60 1 48 4
-19 12 -23 42 -23 l36 0 -34 25 c-19 14 -40 25 -47 25 -7 0 -13 4 -13 10 0 5
-18 13 -39 16 -36 6 -40 9 -48 48 l-8 41 -27 -55z"/>
<path d="M1735 6649 c-300 -28 -618 -127 -846 -262 -136 -80 -127 -69 -140
-178 -12 -99 -4 -200 21 -264 l12 -30 31 36 c160 180 434 334 718 402 158 38
268 50 449 50 400 -1 833 -115 1308 -343 266 -128 462 -260 631 -424 175 -170
299 -355 377 -561 l22 -61 -49 -17 c-27 -10 -65 -34 -84 -53 -62 -61 -68 -83
-76 -259 -7 -179 -24 -247 -87 -370 -49 -93 -165 -211 -250 -253 -43 -21 -57
-32 -45 -35 10 -3 -4 -2 -32 2 -107 13 -606 5 -760 -13 -747 -87 -1371 -313
-1900 -689 -110 -79 -308 -242 -369 -305 l-38 -40 73 -74 c66 -67 123 -104
184 -122 16 -5 25 3 43 37 28 52 121 151 193 203 70 52 408 267 524 334 145
83 377 194 556 264 448 176 976 283 1221 250 l46 -6 -10 -36 c-13 -46 -4 -114
23 -169 15 -31 44 -61 100 -104 153 -116 234 -251 345 -574 51 -147 84 -274
84 -323 0 -27 3 -32 18 -28 9 3 65 17 125 32 59 14 107 32 107 38 -1 34 -44
200 -85 326 -82 251 -164 425 -260 550 -48 62 -148 160 -184 179 -29 16 -21
24 49 46 126 40 222 103 318 207 167 181 248 381 259 634 l6 131 49 -34 c58
-38 71 -40 97 -14 41 41 40 209 -4 443 -55 298 -127 442 -319 633 -154 153
-429 336 -721 480 -581 286 -1193 414 -1730 364z"/>
<path d="M370 4429 c0 -244 16 -617 31 -740 16 -133 44 -269 81 -381 l31 -96
94 61 c75 50 93 66 89 82 -2 11 -15 63 -29 115 -40 152 -77 522 -77 772 0 69
0 69 -54 136 -30 37 -79 107 -110 156 l-56 89 0 -194z"/>
<path d="M4125 2546 c-540 -241 -958 -485 -1306 -764 -155 -124 -402 -365
-514 -502 -77 -94 -165 -213 -165 -222 0 -3 28 -18 63 -34 50 -23 76 -28 137
-29 41 0 89 4 106 8 30 8 31 7 37 -31 19 -118 108 -165 571 -302 130 -38 174
-46 128 -21 -27 15 -132 146 -172 216 -18 31 -42 60 -54 64 -11 4 -74 27 -138
50 l-117 43 -16 56 c-13 45 -28 67 -70 108 l-54 51 93 124 c308 409 706 737
1248 1029 l77 41 20 -39 c27 -52 95 -110 146 -123 69 -18 103 -40 190 -121
149 -140 329 -382 411 -553 91 -190 124 -393 90 -549 -35 -154 -135 -304 -248
-370 -44 -25 -148 -56 -190 -56 -13 0 -49 -18 -79 -41 -65 -49 -195 -113 -264
-130 l-50 -13 60 -12 c131 -28 298 -38 394 -26 176 24 290 82 412 210 98 103
166 232 199 376 20 83 22 115 17 239 -11 308 -124 560 -412 918 -138 172 -327
333 -407 345 -21 4 -38 8 -38 9 0 1 7 22 15 45 17 48 18 60 8 60 -5 0 -62 -24
-128 -54z"/>
<path d="M1649 1475 c206 -194 368 -334 374 -324 17 25 107 178 107 182 0 3
-33 33 -74 66 -63 52 -80 61 -114 61 -65 0 -205 28 -290 58 l-80 28 77 -71z"/>
</g>
</svg>
